<svg width="56" height="26" fill="none" xmlns="http://www.w3.org/2000/svg"><path d="M16.8 1.398h2.016c.831 0 1.498.263 2 .79.5.526.75 1.196.75 2.011 0 .818-.25 1.489-.75 2.012-.502.526-1.169.789-2 .789h-2.015V1.398zm3.63 4.465c.396-.44.593-.995.593-1.664 0-.669-.197-1.224-.593-1.664-.399-.437-.936-.656-1.614-.656h-1.488v4.64h1.488c.678 0 1.215-.218 1.614-.656zM27.523 7h-.597l-1.457-2.207h-1.856V7h-.527V1.398h2.23c.604 0 1.08.151 1.426.454.341.302.512.717.512 1.246 0 .234-.038.451-.114.652a1.286 1.286 0 01-.285.473 1.682 1.682 0 01-.347.28c-.206.129-.366.192-.48.192L27.522 7zm-3.91-5.121v2.433h1.703c.435 0 .776-.106 1.024-.32.247-.216.37-.514.37-.894 0-.378-.123-.676-.37-.895-.253-.216-.594-.324-1.024-.324h-1.703zm7.008-.48h.726L33.644 7h-.55l-.555-1.344h-3.11L28.875 7h-.551l2.297-5.602zm-.992 3.777h2.71l-1.343-3.313h-.024L29.63 5.176zM39.714 7h-.511V5.785h-.024a.947.947 0 01-.055.137c-.02.047-.092.15-.214.308-.11.149-.24.282-.39.399-.155.117-.364.22-.63.309-.268.093-.564.14-.887.14-.815 0-1.472-.27-1.972-.808-.5-.537-.75-1.227-.75-2.07 0-.845.251-1.535.754-2.071.5-.54 1.169-.809 2.008-.809.432 0 .82.075 1.164.223.34.151.604.33.789.539.174.206.321.415.441.629.12.21.197.393.23.547l.047.222h-.55l-.008-.015a3.53 3.53 0 00-.074-.254 2.861 2.861 0 00-.211-.398 2.202 2.202 0 00-.375-.477 1.984 1.984 0 00-.598-.36 2.215 2.215 0 00-.856-.16c-.684 0-1.224.224-1.617.672-.398.45-.597 1.021-.597 1.711 0 .688.198 1.257.593 1.707.394.453.921.68 1.582.68.329 0 .625-.061.891-.184.268-.125.474-.268.617-.43.146-.163.267-.343.363-.538.16-.32.239-.577.239-.77h-2.04v-.48h2.641V7zm8.8-5h-.023l-1.894 3.434h-.676L44.027 2h-.024v5h-.527V1.398h.824l1.95 3.563h.019l1.949-3.563h.824V7h-.527V2zm6.333 5h-4.04V1.398h4.04v.48h-3.512v2.009h3.055v.48h-3.055V6.52h3.512V7z" fill="#000"/><circle opacity=".4" cx="8.5" cy="17.5" r="8" stroke="#000"/></svg>