<svg width="102" height="16" fill="none" xmlns="http://www.w3.org/2000/svg"><path d="M.472 12H11.4V9.472H3.704V.64H.472V12zm17.026.304c3.744 0 6.208-1.696 6.208-4.304 0-2.608-2.464-4.304-6.208-4.304-3.728 0-6.192 1.696-6.192 4.304 0 2.608 2.464 4.304 6.192 4.304zm0-1.968c-1.792 0-2.992-.912-2.992-2.336s1.2-2.336 2.992-2.336c1.808 0 2.992.912 2.992 2.336s-1.184 2.336-2.992 2.336zm18.428-5.84v-1.92a4.264 4.264 0 00-.768-.064c-1.376 0-2.32.528-2.608 1.552-.816-.24-1.84-.368-3.056-.368-3.424 0-5.376.992-5.376 2.752 0 .976.608 1.728 1.728 2.208-1.312.272-2.064.944-2.064 1.888 0 .704.48 1.248 1.28 1.552-.992.224-1.44.688-1.44 1.392 0 1.328 1.728 1.936 5.536 1.936 4.704 0 6.72-.928 6.72-3.024 0-1.6-1.056-2.352-3.44-2.368l-5.12-.016c-.672 0-.976-.192-.976-.544 0-.224.16-.4.48-.496.752.192 1.648.288 2.672.288 3.376 0 5.36-1.056 5.36-2.816 0-.752-.368-1.376-1.056-1.824.288-.144.672-.224 1.168-.224.368 0 .672.032.96.096zm-6.432 3.312c-1.408 0-2.224-.496-2.224-1.36 0-.848.8-1.296 2.224-1.296 1.424 0 2.208.448 2.208 1.296 0 .864-.816 1.36-2.208 1.36zm2.608 4.544c.832 0 1.184.24 1.184.688 0 .768-.832 1.024-3.856 1.024-2.4 0-3.504-.288-3.504-1.104 0-.256.112-.448.336-.624.128.016.256.016.4.016h5.44zm9.302-.048c3.744 0 6.208-1.696 6.208-4.304 0-2.608-2.464-4.304-6.208-4.304-3.728 0-6.192 1.696-6.192 4.304 0 2.608 2.464 4.304 6.192 4.304zm0-1.968c-1.792 0-2.992-.912-2.992-2.336s1.2-2.336 2.992-2.336c1.808 0 2.992.912 2.992 2.336s-1.184 2.336-2.992 2.336zM53.863 12H64.79V9.472h-7.696V.64h-3.232V12zm17.025.304c3.744 0 6.209-1.696 6.209-4.304 0-2.608-2.465-4.304-6.209-4.304-3.728 0-6.192 1.696-6.192 4.304 0 2.608 2.465 4.304 6.192 4.304zm0-1.968c-1.791 0-2.992-.912-2.992-2.336s1.2-2.336 2.992-2.336c1.808 0 2.992.912 2.992 2.336s-1.183 2.336-2.992 2.336zm18.429-5.84v-1.92a4.264 4.264 0 00-.768-.064c-1.376 0-2.32.528-2.608 1.552-.816-.24-1.84-.368-3.056-.368-3.424 0-5.376.992-5.376 2.752 0 .976.608 1.728 1.728 2.208-1.312.272-2.064.944-2.064 1.888 0 .704.48 1.248 1.28 1.552-.992.224-1.44.688-1.44 1.392 0 1.328 1.728 1.936 5.536 1.936 4.704 0 6.72-.928 6.72-3.024 0-1.6-1.056-2.352-3.44-2.368l-5.12-.016c-.672 0-.976-.192-.976-.544 0-.224.16-.4.48-.496.752.192 1.648.288 2.672.288 3.376 0 5.36-1.056 5.36-2.816 0-.752-.368-1.376-1.056-1.824.288-.144.672-.224 1.168-.224.368 0 .672.032.96.096zm-6.432 3.312c-1.408 0-2.224-.496-2.224-1.36 0-.848.8-1.296 2.224-1.296 1.424 0 2.208.448 2.208 1.296 0 .864-.816 1.36-2.208 1.36zm2.608 4.544c.832 0 1.184.24 1.184.688 0 .768-.832 1.024-3.856 1.024-2.4 0-3.504-.288-3.504-1.104 0-.256.112-.448.336-.624.128.016.256.016.4.016h5.44zm9.302-.048c3.744 0 6.208-1.696 6.208-4.304 0-2.608-2.464-4.304-6.208-4.304-3.728 0-6.192 1.696-6.192 4.304 0 2.608 2.464 4.304 6.192 4.304zm0-1.968c-1.792 0-2.992-.912-2.992-2.336s1.2-2.336 2.992-2.336c1.808 0 2.992.912 2.992 2.336s-1.184 2.336-2.992 2.336z" fill="#000"/><path d="M.472 12H.347v.125h.125V12zM11.4 12v.125h.125V12H11.4zm0-2.528h.125v-.125H11.4v.125zm-7.696 0h-.125v.125h.125v-.125zm0-8.832h.125V.515h-.125V.64zM.472.64V.515H.347V.64h.125zm0 11.485H11.4v-.25H.472v.25zM11.525 12V9.472h-.25V12h.25zM11.4 9.347H3.704v.25H11.4v-.25zm-7.571.125V.64h-.25v8.832h.25zM3.704.515H.472v.25h3.232v-.25zM.347.64V12h.25V.64h-.25zm17.15 11.789c1.89 0 3.47-.428 4.58-1.196 1.114-.771 1.754-1.884 1.754-3.233h-.25c0 1.26-.593 2.298-1.646 3.027-1.057.732-2.582 1.152-4.437 1.152v.25zM23.832 8c0-1.349-.64-2.462-1.754-3.233-1.11-.768-2.69-1.196-4.58-1.196v.25c1.856 0 3.38.42 4.438 1.152C22.988 5.702 23.58 6.74 23.58 8h.25zm-6.333-4.429c-1.881 0-3.457.428-4.565 1.196C11.82 5.538 11.18 6.651 11.18 8h.25c0-1.26.593-2.298 1.644-3.027 1.055-.732 2.576-1.152 4.423-1.152v-.25zM11.18 8c0 1.349.64 2.462 1.752 3.233 1.108.768 2.684 1.196 4.565 1.196v-.25c-1.847 0-3.368-.42-4.423-1.152C12.023 10.298 11.43 9.259 11.43 8h-.25zm6.317 2.211c-.876 0-1.595-.223-2.092-.608A1.958 1.958 0 0114.631 8h-.25c0 .75.318 1.371.872 1.8.552.428 1.329.661 2.245.661v-.25zM14.63 8c0-.673.282-1.22.775-1.603.497-.385 1.216-.608 2.092-.608v-.25c-.916 0-1.693.233-2.245.66A2.208 2.208 0 0014.381 8h.25zm2.867-2.211c.884 0 1.603.223 2.097.608.492.382.77.93.77 1.603h.25c0-.75-.314-1.37-.866-1.8-.55-.428-1.327-.661-2.251-.661v.25zM20.365 8c0 .674-.278 1.221-.77 1.603-.494.385-1.213.608-2.097.608v.25c.924 0 1.701-.233 2.25-.66.553-.43.867-1.05.867-1.801h-.25zm15.561-3.504l-.027.122.152.034v-.156h-.125zm0-1.92h.125v-.105l-.103-.018-.022.123zM32.55 4.064l-.035.12.121.036.034-.122-.12-.034zm-6.704 4.592l.026.122.389-.08-.366-.157-.049.115zm-.784 3.44l.028.122.404-.091-.387-.148-.045.117zm7.376-2.064l.001-.125v.125zm-5.12-.016v-.125.125zm-.496-1.04l.031-.121-.034-.009-.033.01.036.12zm6.976-4.352l-.056-.112-.195.098.183.119.068-.105zm-7.536 7.712l.016-.124-.052-.006-.041.032.077.098zm9.79-7.84v-1.92h-.25v1.92h.25zm-.104-2.043a4.388 4.388 0 00-.79-.066v.25c.25 0 .483.016.746.062l.044-.246zm-.79-.066c-.703 0-1.306.135-1.775.41-.471.275-.8.69-.953 1.233l.24.068c.136-.48.423-.842.84-1.086.419-.246.975-.375 1.648-.375v-.25zm-2.573 1.557c-.83-.244-1.867-.373-3.09-.373v.25c1.207 0 2.219.127 3.02.363l.07-.24zm-3.09-.373c-1.722 0-3.088.249-4.03.73-.947.484-1.472 1.21-1.472 2.147h.25c0-.822.451-1.473 1.336-1.925.89-.455 2.212-.702 3.915-.702v-.25zm-5.502 2.877c0 1.042.655 1.83 1.804 2.323l.098-.23c-1.09-.467-1.652-1.183-1.652-2.093h-.25zm1.828 2.086c-.67.138-1.21.382-1.583.722a1.69 1.69 0 00-.58 1.288h.25c0-.435.17-.806.498-1.104.33-.3.823-.528 1.466-.662l-.051-.244zm-2.164 2.01c0 .774.531 1.354 1.36 1.669l.09-.234c-.771-.293-1.2-.8-1.2-1.435h-.25zm1.378 1.43c-.509.115-.894.294-1.152.549-.263.258-.386.584-.386.965h.25c0-.322.101-.581.31-.787.214-.21.549-.374 1.033-.483l-.055-.244zm-1.538 1.514c0 .362.12.68.362.947.24.264.596.474 1.062.637.929.325 2.33.477 4.237.477v-.25c-1.901 0-3.267-.152-4.155-.463-.442-.155-.756-.346-.959-.57a1.11 1.11 0 01-.297-.778h-.25zm5.661 2.061c2.355 0 4.058-.232 5.176-.737.56-.254.98-.58 1.259-.984.279-.406.41-.883.41-1.428h-.25c0 .503-.12.928-.366 1.286-.247.358-.626.658-1.156.898-1.067.483-2.724.715-5.073.715v.25zm6.845-3.149c0-.831-.276-1.462-.88-1.88-.593-.412-1.484-.605-2.684-.613l-.002.25c1.184.008 2.013.2 2.544.568.52.361.772.906.772 1.675h.25zm-3.565-2.493l-5.12-.016v.25l5.12.016v-.25zm-5.12-.016c-.328 0-.546-.048-.678-.123a.314.314 0 01-.173-.296h-.25c0 .22.1.398.299.512.188.109.458.157.802.157v-.25zm-.85-.419c0-.08.026-.149.085-.21a.689.689 0 01.305-.166l-.072-.24a.933.933 0 00-.414.234.542.542 0 00-.155.382h.25zm.323-.375c.765.195 1.672.292 2.703.292v-.25c-1.017 0-1.902-.095-2.641-.284l-.062.242zm2.703.292c1.698 0 3.061-.265 4.004-.762.949-.5 1.481-1.241 1.481-2.179h-.25c0 .822-.46 1.49-1.347 1.957-.893.471-2.21.734-3.888.734v.25zm5.485-2.941c0-.8-.394-1.46-1.113-1.929l-.136.21c.657.428 1 1.015 1 1.719h.25zm-1.125-1.712c.265-.133.628-.211 1.112-.211v-.25c-.508 0-.913.082-1.224.237l.112.224zm1.112-.211c.36 0 .655.031.933.093l.054-.244a4.454 4.454 0 00-.987-.099v.25zm-5.472 3.158c-.692 0-1.222-.122-1.575-.338-.346-.21-.524-.512-.524-.897h-.25c0 .48.23.858.644 1.11.407.25.99.375 1.705.375v-.25zm-2.099-1.235c0-.376.173-.66.516-.858.35-.202.88-.313 1.583-.313v-.25c-.722 0-1.303.113-1.708.347-.414.238-.64.602-.64 1.074h.25zm2.1-1.171c.701 0 1.228.111 1.574.313.338.197.508.481.508.858h.25c0-.471-.222-.835-.632-1.074-.401-.234-.98-.347-1.7-.347v.25zm2.082 1.171c0 .385-.178.686-.522.897-.35.216-.877.338-1.56.338v.25c.707 0 1.285-.126 1.69-.374.412-.253.642-.632.642-1.111h-.25zm.525 6.029c.409 0 .677.06.84.158.15.091.22.22.22.405h.25a.681.681 0 00-.341-.619c-.222-.134-.545-.194-.969-.194v.25zm1.06.563a.542.542 0 01-.144.398c-.103.108-.276.204-.559.281-.567.155-1.515.22-3.029.22v.25c1.51 0 2.49-.063 3.095-.228.303-.083.527-.195.675-.351a.79.79 0 00.211-.57h-.25zm-3.732.899c-1.199 0-2.059-.072-2.616-.24-.277-.085-.469-.19-.59-.31a.578.578 0 01-.173-.429h-.25c0 .236.081.439.247.605.16.162.396.283.694.373.595.18 1.487.251 2.688.251v-.25zm-3.379-.979c0-.209.087-.367.288-.526l-.154-.196c-.247.193-.384.419-.384.722h.25zm.196-.5c.137.017.273.017.415.017v-.25c-.145 0-.265 0-.384-.015l-.031.248zm.415.017h5.44v-.25h-5.44v.25zm14.742-.048c1.89 0 3.468-.428 4.58-1.196 1.114-.771 1.753-1.884 1.753-3.233h-.25c0 1.26-.593 2.298-1.646 3.027-1.057.732-2.582 1.152-4.437 1.152v.25zM47.737 8c0-1.349-.64-2.462-1.754-3.233-1.11-.768-2.69-1.196-4.579-1.196v.25c1.855 0 3.38.42 4.437 1.152 1.053.729 1.646 1.768 1.646 3.027h.25zm-6.333-4.429c-1.881 0-3.456.428-4.565 1.196-1.112.771-1.752 1.884-1.752 3.233h.25c0-1.26.593-2.298 1.644-3.027 1.055-.732 2.576-1.152 4.423-1.152v-.25zM35.087 8c0 1.349.64 2.462 1.752 3.233 1.109.768 2.684 1.196 4.565 1.196v-.25c-1.847 0-3.368-.42-4.423-1.152C35.93 10.298 35.337 9.26 35.337 8h-.25zm6.317 2.211c-.876 0-1.595-.223-2.091-.608A1.958 1.958 0 0138.537 8h-.25c0 .75.318 1.371.873 1.8.551.428 1.328.661 2.244.661v-.25zM38.537 8c0-.673.282-1.22.776-1.603.496-.385 1.215-.608 2.091-.608v-.25c-.916 0-1.693.233-2.244.66A2.208 2.208 0 0038.287 8h.25zm2.867-2.211c.884 0 1.603.223 2.097.608.492.382.77.93.77 1.603h.25c0-.75-.313-1.37-.866-1.8-.55-.428-1.327-.661-2.25-.661v.25zM44.271 8c0 .674-.278 1.221-.77 1.603-.494.385-1.212.608-2.097.608v.25c.924 0 1.701-.233 2.25-.66.553-.43.867-1.05.867-1.801h-.25zm9.592 4h-.125v.125h.125V12zm10.928 0v.125h.125V12h-.125zm0-2.528h.125v-.125h-.125v.125zm-7.696 0h-.125v.125h.125v-.125zm0-8.832h.125V.515h-.125V.64zm-3.232 0V.515h-.125V.64h.125zm0 11.485H64.79v-.25H53.863v.25zM64.916 12V9.472h-.25V12h.25zm-.125-2.653h-7.696v.25h7.696v-.25zm-7.571.125V.64h-.25v8.832h.25zM57.095.515h-3.232v.25h3.232v-.25zM53.738.64V12h.25V.64h-.25zm17.15 11.789c1.89 0 3.469-.428 4.58-1.196 1.114-.771 1.754-1.884 1.754-3.233h-.25c0 1.26-.593 2.298-1.647 3.027-1.057.732-2.582 1.152-4.437 1.152v.25zM77.222 8c0-1.349-.64-2.462-1.754-3.233-1.111-.768-2.69-1.196-4.58-1.196v.25c1.855 0 3.38.42 4.437 1.152C76.38 5.702 76.972 6.74 76.972 8h.25zm-6.334-4.429c-1.88 0-3.456.428-4.565 1.196-1.112.771-1.751 1.884-1.751 3.233h.25c0-1.26.592-2.298 1.644-3.027 1.055-.732 2.576-1.152 4.422-1.152v-.25zM64.571 8c0 1.349.64 2.462 1.752 3.233 1.11.768 2.684 1.196 4.566 1.196v-.25c-1.847 0-3.368-.42-4.423-1.152-1.052-.729-1.644-1.768-1.644-3.027h-.25zm6.317 2.211c-.876 0-1.594-.223-2.09-.608A1.958 1.958 0 0168.021 8h-.25c0 .75.318 1.371.872 1.8.551.428 1.329.661 2.244.661v-.25zM68.021 8c0-.673.282-1.22.776-1.603.497-.385 1.215-.608 2.091-.608v-.25c-.915 0-1.693.233-2.244.66A2.208 2.208 0 0067.77 8h.25zm2.867-2.211c.885 0 1.603.223 2.098.608.491.382.77.93.77 1.603h.25c0-.75-.314-1.37-.867-1.8-.55-.428-1.327-.661-2.25-.661v.25zM73.755 8c0 .674-.278 1.221-.77 1.603-.494.385-1.212.608-2.097.608v.25c.924 0 1.702-.233 2.251-.66.553-.43.867-1.05.867-1.801h-.25zm15.562-3.504l-.027.122.152.034v-.156h-.125zm0-1.92h.125v-.105l-.103-.018-.022.123zM85.94 4.064l-.035.12.12.036.035-.122-.12-.034zm-6.704 4.592l.025.122.39-.08-.366-.157-.05.115zm-.784 3.44l.027.122.405-.091-.388-.148-.044.117zm7.376-2.064v-.125.125zm-5.12-.016v-.125.125zm-.496-1.04l.03-.121-.033-.009-.033.01.036.12zm6.976-4.352l-.056-.112-.195.098.183.119.068-.105zm-7.536 7.712l.015-.124-.052-.006-.04.032.077.098zm9.789-7.84v-1.92h-.25v1.92h.25zm-.103-2.043a4.39 4.39 0 00-.79-.066v.25c.25 0 .482.016.746.062l.043-.246zm-.79-.066c-.703 0-1.307.135-1.775.41-.472.275-.8.69-.954 1.233l.241.068c.135-.48.422-.842.839-1.086.42-.246.975-.375 1.649-.375v-.25zm-2.573 1.557c-.83-.244-1.867-.373-3.091-.373v.25c1.208 0 2.22.127 3.02.363l.071-.24zm-3.091-.373c-1.721 0-3.088.249-4.03.73-.946.484-1.471 1.21-1.471 2.147h.25c0-.822.45-1.473 1.336-1.925.89-.455 2.212-.702 3.915-.702v-.25zm-5.501 2.877c0 1.042.654 1.83 1.803 2.323l.099-.23c-1.09-.467-1.652-1.183-1.652-2.093h-.25zm1.827 2.086c-.67.138-1.209.382-1.582.722a1.691 1.691 0 00-.581 1.288h.25c0-.435.171-.806.499-1.104.33-.3.823-.528 1.465-.662l-.05-.244zm-2.163 2.01c0 .774.53 1.354 1.36 1.669l.09-.234c-.771-.293-1.2-.8-1.2-1.435h-.25zm1.377 1.43c-.508.115-.893.294-1.152.549-.263.258-.385.584-.385.965h.25c0-.322.101-.581.31-.787.214-.21.548-.374 1.032-.483l-.055-.244zm-1.537 1.514c0 .362.119.68.362.947.24.264.596.474 1.061.637.93.325 2.331.477 4.238.477v-.25c-1.902 0-3.268-.152-4.155-.463-.443-.155-.757-.346-.96-.57a1.11 1.11 0 01-.296-.778h-.25zm5.66 2.061c2.356 0 4.059-.232 5.176-.737.561-.254.98-.58 1.26-.984.278-.406.41-.883.41-1.428h-.25c0 .503-.12.928-.367 1.286-.246.358-.625.658-1.156.898-1.066.483-2.724.715-5.072.715v.25zm6.846-3.149c0-.831-.277-1.462-.88-1.88-.593-.412-1.484-.605-2.684-.613l-.002.25c1.184.008 2.013.2 2.543.568.521.361.773.906.773 1.675h.25zm-3.565-2.493l-5.12-.016v.25l5.12.016v-.25zm-5.12-.016c-.329 0-.546-.048-.678-.123a.314.314 0 01-.173-.296h-.25c0 .22.1.398.298.512.189.109.459.157.803.157v-.25zm-.851-.419c0-.08.027-.149.085-.21a.688.688 0 01.306-.166l-.072-.24a.933.933 0 00-.415.234.542.542 0 00-.154.382h.25zm.324-.375c.765.195 1.671.292 2.703.292v-.25c-1.017 0-1.902-.095-2.641-.284l-.062.242zm2.703.292c1.698 0 3.06-.265 4.004-.762.948-.5 1.48-1.241 1.48-2.179h-.25c0 .822-.459 1.49-1.347 1.957-.892.471-2.21.734-3.887.734v.25zm5.485-2.941c0-.8-.395-1.46-1.113-1.929l-.136.21c.657.428.999 1.015.999 1.719h.25zm-1.125-1.712c.265-.133.628-.211 1.112-.211v-.25c-.509 0-.913.082-1.224.237l.112.224zm1.112-.211c.36 0 .655.031.933.093l.054-.244a4.455 4.455 0 00-.987-.099v.25zm-5.472 3.158c-.693 0-1.223-.122-1.575-.338-.346-.21-.524-.512-.524-.897h-.25c0 .48.23.858.644 1.11.407.25.989.375 1.705.375v-.25zm-2.1-1.235c0-.376.174-.66.516-.858.35-.202.881-.313 1.584-.313v-.25c-.722 0-1.303.113-1.709.347-.413.238-.64.602-.64 1.074h.25zm2.1-1.171c.702 0 1.228.111 1.575.313.338.197.508.481.508.858h.25c0-.471-.222-.835-.632-1.074-.402-.234-.98-.347-1.701-.347v.25zm2.083 1.171c0 .385-.178.686-.523.897-.35.216-.876.338-1.56.338v.25c.708 0 1.286-.126 1.691-.374.412-.253.642-.632.642-1.111h-.25zm.525 6.029c.408 0 .677.06.84.158.15.091.219.22.219.405h.25a.681.681 0 00-.34-.619c-.222-.134-.546-.194-.97-.194v.25zm1.059.563a.542.542 0 01-.143.398c-.103.108-.276.204-.56.281-.567.155-1.515.22-3.028.22v.25c1.51 0 2.49-.063 3.095-.228.303-.083.526-.195.674-.351a.79.79 0 00.212-.57h-.25zm-3.731.899c-1.2 0-2.06-.072-2.616-.24-.278-.085-.469-.19-.59-.31a.577.577 0 01-.173-.429h-.25c0 .236.081.439.246.605.162.162.396.283.695.373.595.18 1.487.251 2.688.251v-.25zm-3.38-.979c0-.209.087-.367.289-.526l-.154-.196c-.247.193-.384.419-.384.722h.25zm.196-.5c.137.017.273.017.416.017v-.25c-.146 0-.266 0-.385-.015l-.03.248zm.416.017h5.44v-.25h-5.44v.25zm14.742-.048c1.889 0 3.468-.428 4.579-1.196 1.114-.771 1.754-1.884 1.754-3.233h-.25c0 1.26-.593 2.298-1.646 3.027-1.058.732-2.582 1.152-4.437 1.152v.25zM101.128 8c0-1.349-.64-2.462-1.754-3.233-1.111-.768-2.69-1.196-4.58-1.196v.25c1.856 0 3.38.42 4.438 1.152 1.053.729 1.646 1.768 1.646 3.027h.25zm-6.333-4.429c-1.881 0-3.457.428-4.566 1.196-1.112.771-1.751 1.884-1.751 3.233h.25c0-1.26.592-2.298 1.644-3.027 1.055-.732 2.576-1.152 4.423-1.152v-.25zM88.478 8c0 1.349.64 2.462 1.752 3.233 1.108.768 2.684 1.196 4.565 1.196v-.25c-1.847 0-3.368-.42-4.423-1.152C89.32 10.298 88.728 9.26 88.728 8h-.25zm6.317 2.211c-.876 0-1.595-.223-2.092-.608A1.958 1.958 0 0191.928 8h-.25c0 .75.318 1.371.872 1.8.552.428 1.329.661 2.245.661v-.25zM91.928 8c0-.673.282-1.22.775-1.603.497-.385 1.216-.608 2.092-.608v-.25c-.916 0-1.693.233-2.245.66A2.208 2.208 0 0091.678 8h.25zm2.867-2.211c.884 0 1.603.223 2.097.608.491.382.77.93.77 1.603h.25c0-.75-.314-1.37-.867-1.8-.55-.428-1.327-.661-2.25-.661v.25zM97.662 8c0 .674-.279 1.221-.77 1.603-.494.385-1.213.608-2.097.608v.25c.923 0 1.7-.233 2.25-.66.553-.43.867-1.05.867-1.801h-.25z" fill="#000"/></svg>