<svg xmlns="http://www.w3.org/2000/svg" width="97.562" height="97.531" viewBox="0 0 97.562 97.531">
  <defs>
    <style>
      .cls-1 {
        fill-rule: evenodd;
      }
    </style>
  </defs>
  <path class="cls-1" d="M496.362,646.754h28.8v-25.44h-28.8v25.44Zm2.673-1.374c1.235-4.324,4.036-12,6.456-12a1.645,1.645,0,0,1,1.123.576c3.269,3.271,4.979,8.883,5.648,11.426H499.035Zm15.137,0c0.443-1.529,1.931-6.029,4.052-6.575a1.526,1.526,0,0,1,.34-0.041c1.669,0,3.214,3.408,4.454,6.616h-8.846Zm-16.435-22.743h26.054v21.44c-1.324-3.3-2.863-6.523-5.227-6.523a2.528,2.528,0,0,0-.638.082c-2.09.535-3.511,3.341-4.34,5.607l-0.319.875-0.284-.9c-0.947-3.054-2.677-7.286-5.515-10.128a2.79,2.79,0,0,0-1.977-.926c-3.644,0-6.642,9.4-7.707,13.211h-0.047V622.637Zm0,0,18.6,9.861a3.355,3.355,0,1,0-3.352-3.357,3.36,3.36,0,0,0,3.352,3.357h0Zm0-5.8a2.449,2.449,0,1,1-2.452,2.447,2.448,2.448,0,0,1,2.452-2.447h0Zm0,0,20.925,7.05,1.091-4.109-10.75-2.857v-8.11H493.974V652.3h3.547l-0.319,1.19,5.313,1.4c-0.211-.024-0.427-0.055-0.643-0.077l-0.69,1.968,31.743,11.013,11.1-31.691Zm-6.4,26.064-0.519-.181L530.773,658q0.061,0.9.092,1.8h0Zm5.366-22.192,2.867,1-7.064,20.241a29.419,29.419,0,0,0-.407-4.038Zm-9.2,16.672-7.45-1.988h7.2c0.1,0.658.18,1.323,0.252,1.988h0Zm0.578-23.376,6.023,1.6-5.524,20.713a24.785,24.785,0,0,0-.5-3.109v-19.2Zm-32.259-10.92h30.935v30.933H495.348V619.992Zm3.558,32.308h15.339l14.524,3.862,6.534-24.576-7.7-2.054v-1.369l9.108,2.419-7.96,29.921-29.916-7.966Zm33.211,13.855-29.23-10.2,0.308-.891,26.492,7.007,0.3-1.116,2.472,0.86,8.378-24.01-4.259-1.483,0.345-1.287,5.4,1.884Zm0,0M519,595.763a47.468,47.468,0,1,1-47.468,47.468A47.522,47.522,0,0,1,519,595.763m0-1.3a48.768,48.768,0,1,0,48.769,48.769A48.769,48.769,0,0,0,519,594.462h0Z" transform="translate(-470.219 -594.469)"/>
</svg>
