<svg xmlns="http://www.w3.org/2000/svg" width="97.562" height="97.531" viewBox="0 0 97.562 97.531">
  <defs>
    <style>
      .cls-1 {
        fill-rule: evenodd;
      }
    </style>
  </defs>
  <path class="cls-1" d="M814.43,624.99V626.4h15.4l-32.661,32.66v-15.4h-1.416v17.816h17.816l0-1.412-15.4,0L830.828,627.4v15.4h1.417V624.986Zm0,0,18.453-6.157H789.932v48.8h48.136v-48.8h-5.185Zm3.762,1.474v45.759H791.668V620.307h44.977ZM814,643.231m0-47.468a47.468,47.468,0,1,1-47.468,47.468A47.522,47.522,0,0,1,814,595.763m0-1.3a48.768,48.768,0,1,0,48.769,48.769A48.769,48.769,0,0,0,814,594.462h0Z" transform="translate(-765.219 -594.469)"/>
</svg>
